<svg width="1359" height="704" xmlns="http://www.w3.org/2000/svg"><g fill="none" fill-rule="evenodd"><g opacity=".08" style="mix-blend-mode:luminosity" transform="translate(2 2)"><path d="M819.982 203.982a1.359 1.359 0 0 1-1.254-.812 1.286 1.286 0 0 1 .294-1.433l12.338-11.948a1.39 1.39 0 0 1 1.886.033c.517.5.532 1.309.033 1.827l-12.338 11.956c-.256.244-.6.38-.96.377zm9.26 1.088a1.359 1.359 0 0 1-1.253-.812 1.286 1.286 0 0 1 .293-1.433l8.274-8.018a1.39 1.39 0 0 1 1.886.032c.517.501.532 1.31.033 1.828l-8.274 8.017a1.38 1.38 0 0 1-.959.386zm9.315 1.009a1.359 1.359 0 0 1-1.254-.812 1.286 1.286 0 0 1 .294-1.434l4.137-4.008a1.39 1.39 0 0 1 1.886.032c.517.5.531 1.309.033 1.827l-4.137 4.009a1.37 1.37 0 0 1-.96.386z" fill="#FFF" fill-rule="nonzero"/><path d="M336.755 127.912v11.114m5.73-5.552h-11.46m698.693-5.562v11.114m5.73-5.552h-11.46m103.61 122.886v11.105m5.74-5.553h-11.47m-882.993-5.552v11.105m5.73-5.553h-11.469m653.243-60.079v11.114m5.73-5.552h-11.47m-400.544-5.562v11.114m5.739-5.552h-11.47M67.24 295.06h11.469m-5.73-5.552v11.105M66.64 432.096l11.46.202m-5.621-5.658l-.217 11.106m724.536-330.632v17.684m9.125-8.842h-18.25m-218-8.842v17.684m9.124-8.842H560.55M683.232.44v17.693m9.134-8.851h-18.258M9.578 357.237v17.693m9.133-8.851H.453m1345.544-8.842v17.693m9.134-8.851h-18.258m-307.155 237.044v-11.114m-5.73 5.552h11.46m-698.693 5.562v-11.114m-5.73 5.552h11.46m797.496-157.973v-11.106m-5.739 5.553h11.47m-919.22 5.553v-11.106m-5.73 5.553h11.46m247.873 81.36v-11.106m-5.73 5.553h11.469m400.545 5.553v-11.106m-5.74 5.553h11.47m396.182-215.535h11.46m-5.73-5.553v11.106m-6.337 131.482l11.46.202m-5.621-5.658l-.218 11.105m-737.499 166.21V585.51m-9.124 8.842h18.249m218 8.85V585.51m-9.124 8.842h18.258M683.232 699.895V682.21m-9.124 8.842h18.258m113.666-274.246v11.105m5.73-5.552h-11.46" stroke="#FFF" stroke-width="3" stroke-linecap="round"/><ellipse fill="#FFF" cx="888.252" cy="347.351" rx="3.005" ry="2.912"/><path d="M683.232 229.526c-4.024 0-7.287-3.161-7.287-7.061s3.263-7.061 7.287-7.061c4.025 0 7.287 3.161 7.287 7.06-.005 3.899-3.265 7.057-7.287 7.062zm0-11.5c-2.525 0-4.571 1.984-4.571 4.43 0 2.447 2.046 4.43 4.571 4.43s4.571-1.983 4.571-4.43c-.01-2.441-2.052-4.416-4.57-4.42v-.01zm-278.93-144.14c-4.025 0-7.287-3.162-7.287-7.061 0-3.9 3.262-7.062 7.287-7.062 4.024 0 7.287 3.162 7.287 7.062-.005 3.897-3.265 7.056-7.287 7.061zm0-11.5c-2.525 0-4.572 1.983-4.572 4.43 0 2.446 2.047 4.43 4.572 4.43 2.524 0 4.57-1.984 4.57-4.43-.004-2.445-2.048-4.425-4.57-4.43zm557.86 11.5c-4.024 0-7.286-3.162-7.286-7.061 0-3.9 3.262-7.062 7.287-7.062 4.024 0 7.286 3.162 7.286 7.062-.005 3.897-3.264 7.056-7.286 7.061zm0-11.5c-2.524 0-4.57 1.983-4.57 4.43 0 2.446 2.046 4.43 4.57 4.43 2.525 0 4.572-1.984 4.572-4.43-.005-2.445-2.049-4.425-4.571-4.43zM93.817 363.36c0-3.9 3.262-7.062 7.287-7.062 4.024 0 7.286 3.162 7.286 7.062 0 3.9-3.262 7.061-7.286 7.061-4.023-.005-7.282-3.163-7.287-7.061zm11.867 0c0-2.447-2.047-4.43-4.571-4.43-2.525 0-4.572 1.983-4.572 4.43 0 2.446 2.047 4.43 4.572 4.43 2.522-.005 4.566-1.986 4.57-4.43zm23.762-139.667c0-3.9 3.262-7.061 7.287-7.061 4.024 0 7.286 3.161 7.286 7.061s-3.262 7.061-7.286 7.061c-4.023-.004-7.282-3.163-7.287-7.061zm11.867 0c0-2.447-2.047-4.43-4.571-4.43-2.525 0-4.572 1.983-4.572 4.43 0 2.447 2.047 4.43 4.572 4.43 2.522-.005 4.566-1.985 4.57-4.43zm-11.867 279.263c0-3.9 3.262-7.061 7.287-7.061 4.024 0 7.286 3.161 7.286 7.061s-3.262 7.062-7.286 7.062c-4.023-.005-7.282-3.164-7.287-7.062zm11.867 0c0-2.446-2.047-4.43-4.571-4.43-2.525 0-4.572 1.984-4.572 4.43 0 2.447 2.047 4.43 4.572 4.43 2.522-.005 4.566-1.985 4.57-4.43zM425.04 268.044c-4.025 0-7.287-3.162-7.287-7.062 0-3.9 3.262-7.06 7.287-7.06 4.024 0 7.287 3.16 7.287 7.06-.005 3.898-3.265 7.057-7.287 7.062zm0-11.5c-2.525 0-4.571 1.983-4.571 4.43 0 2.446 2.046 4.43 4.57 4.43 2.526 0 4.572-1.984 4.572-4.43-.005-2.445-2.048-4.425-4.571-4.43zm516.393 11.5c-2.947 0-5.604-1.72-6.732-4.36-1.128-2.638-.504-5.675 1.58-7.695 2.084-2.02 5.218-2.623 7.94-1.53 2.724 1.093 4.5 3.667 4.5 6.523-.006 3.898-3.265 7.057-7.288 7.062zm0-11.5c-2.524 0-4.571 1.983-4.571 4.43 0 2.446 2.047 4.43 4.571 4.43 2.525 0 4.572-1.984 4.572-4.43-.005-2.445-2.05-4.425-4.572-4.43z" fill="#000" fill-rule="nonzero"/><ellipse fill="#000" cx="906.547" cy="113.044" rx="3.005" ry="2.912"/><ellipse fill="#000" cx="511.161" cy="115.395" rx="3.005" ry="2.912"/><ellipse fill="#000" cx="1029.718" cy="248.93" rx="3.005" ry="2.912"/><ellipse fill="#000" cx="336.755" cy="248.93" rx="3.005" ry="2.912"/><ellipse fill="#000" cx="769.227" cy="46.667" rx="3.005" ry="2.912"/><ellipse fill="#000" cx="597.237" cy="46.667" rx="3.005" ry="2.912"/><ellipse fill="#000" cx="745.347" cy="165.368" rx="3.005" ry="2.912"/><ellipse fill="#000" cx="621.126" cy="165.368" rx="3.005" ry="2.912"/><path d="M683.241 483.956c4.025 0 7.287 3.162 7.287 7.062 0 3.9-3.262 7.06-7.287 7.06-4.024 0-7.287-3.16-7.287-7.06.005-3.898 3.265-7.057 7.287-7.062zm0 11.5c2.525 0 4.571-1.983 4.571-4.43 0-2.446-2.046-4.43-4.57-4.43-2.526 0-4.572 1.984-4.572 4.43.005 2.445 2.049 4.425 4.571 4.43zm278.93 144.15c4.018.014 7.265 3.176 7.26 7.07-.005 3.892-3.26 7.047-7.278 7.052-4.017.005-7.28-3.142-7.295-7.035a6.96 6.96 0 0 1 2.136-5.017 7.416 7.416 0 0 1 5.178-2.07zm0 11.5c2.524-.015 4.558-2.009 4.545-4.454-.014-2.445-2.07-4.418-4.593-4.406-2.523.011-4.56 2.002-4.55 4.447.03 2.438 2.083 4.396 4.599 4.386v.026zm-557.86-11.5c4.024 0 7.287 3.16 7.287 7.06 0 3.9-3.263 7.062-7.287 7.062-4.025 0-7.287-3.161-7.287-7.061.005-3.898 3.264-7.057 7.287-7.062zm0 11.5c2.524 0 4.571-1.984 4.571-4.43 0-2.447-2.047-4.43-4.571-4.43-2.525 0-4.572 1.983-4.572 4.43.02 2.434 2.06 4.398 4.572 4.403v.026zm537.122-203.44c4.025 0 7.287 3.162 7.287 7.062 0 3.9-3.262 7.061-7.287 7.061-4.024 0-7.287-3.161-7.287-7.06.005-3.899 3.265-7.058 7.287-7.062zm0 11.5c2.525 0 4.572-1.983 4.572-4.43 0-2.446-2.047-4.429-4.572-4.429-2.524 0-4.571 1.983-4.571 4.43.01 2.44 2.052 4.416 4.571 4.42v.01zM425.04 443.229c4.024 0 7.287 3.162 7.287 7.061 0 3.9-3.263 7.062-7.287 7.062-4.025 0-7.287-3.162-7.287-7.062.005-3.897 3.265-7.056 7.287-7.06zm0 11.5c2.525 0 4.571-1.983 4.571-4.43 0-2.446-2.046-4.43-4.571-4.43s-4.571 1.984-4.571 4.43c.005 2.445 2.048 4.425 4.57 4.43zM284.48 352.79c4.024 0 7.286 3.162 7.286 7.062 0 3.9-3.262 7.061-7.287 7.061-4.024 0-7.287-3.161-7.287-7.061.005-3.898 3.265-7.057 7.287-7.062zm0 11.5c2.524 0 4.57-1.983 4.57-4.43 0-2.446-2.046-4.43-4.57-4.43-2.525 0-4.572 1.984-4.572 4.43.01 2.442 2.052 4.417 4.571 4.422v.008zm797.514-11.5c4.024 0 7.287 3.162 7.287 7.062 0 3.9-3.263 7.061-7.287 7.061-4.025 0-7.287-3.161-7.287-7.061.005-3.898 3.264-7.057 7.287-7.062zm0 11.5c2.525 0 4.571-1.983 4.571-4.43 0-2.446-2.046-4.43-4.571-4.43s-4.571 1.984-4.571 4.43c.01 2.442 2.052 4.417 4.57 4.422v.008z" fill="#000" fill-rule="nonzero"/><ellipse fill="#000" cx="482.005" cy="600.447" rx="3.005" ry="2.912"/><ellipse fill="#000" cx="488.441" cy="407.316" rx="3.005" ry="2.912"/><ellipse fill="#000" cx="488.441" cy="289.789" rx="3.005" ry="2.912"/><ellipse fill="#000" cx="886.732" cy="407.316" rx="3.005" ry="2.912"/><ellipse fill="#000" cx="886.732" cy="289.789" rx="3.005" ry="2.912"/><ellipse fill="#000" cx="877.39" cy="598.096" rx="3.005" ry="2.912"/><ellipse fill="#000" cx="326.418" cy="445.035" rx="3.005" ry="2.912"/><ellipse fill="#000" cx="1040.056" cy="447.939" rx="3.005" ry="2.912"/><ellipse fill="#000" cx="597.237" cy="657.351" rx="3.005" ry="2.912"/><ellipse fill="#000" cx="769.227" cy="657.351" rx="3.005" ry="2.912"/><ellipse fill="#000" cx="621.126" cy="548.123" rx="3.005" ry="2.912"/><ellipse fill="#000" cx="745.347" cy="548.123" rx="3.005" ry="2.912"/><path d="M562.505 427.912v-11.105m-5.73 5.553h11.46m237.797-154.676v11.105m5.73-5.552h-11.46m-237.797 5.552v-11.105m-5.73 5.553h11.46" stroke="#FFF" stroke-width="3" stroke-linecap="round"/><ellipse fill="#FFF" cx="489.255" cy="347.351" rx="3.005" ry="2.912"/><path d="M1160.294 309.632c-.36 0-.705-.14-.96-.386l-1.33-1.29a1.287 1.287 0 0 1 0-1.86l1.33-1.289a1.389 1.389 0 0 1 1.92 0l1.33 1.29c.53.513.53 1.345 0 1.86l-1.33 1.289a1.38 1.38 0 0 1-.96.386zm26.55 25.736c-.36 0-.705-.139-.96-.386l-1.33-1.289a1.287 1.287 0 0 1 0-1.86l1.33-1.29a1.389 1.389 0 0 1 1.92 0l1.33 1.29c.53.514.53 1.346 0 1.86l-1.33 1.29a1.38 1.38 0 0 1-.96.385zm-9.785-10.886a1.38 1.38 0 0 1-.95-.377l-1.458-1.394a1.29 1.29 0 0 1-.396-1.287c.12-.466.494-.832.975-.953.48-.122.99.02 1.33.371l1.458 1.395c.393.374.514.942.306 1.436a1.359 1.359 0 0 1-1.256.818l-.01-.009z" fill="#FFF" fill-rule="nonzero"/><path d="M1186.283 333.325a1.38 1.38 0 0 1-.95-.378l-1.458-1.394a1.29 1.29 0 0 1-.396-1.287c.12-.466.494-.832.975-.953.48-.122.99.02 1.33.371l1.458 1.395c.393.374.514.942.306 1.436a1.359 1.359 0 0 1-1.256.818l-.01-.008zm-23.87-22.948a1.37 1.37 0 0 1-.96-.386l-1.44-1.403a1.29 1.29 0 0 1 .027-1.843 1.392 1.392 0 0 1 1.902-.017l1.439 1.404c.388.376.504.941.294 1.433-.21.491-.705.812-1.254.812h-.009z" fill="#FFF" fill-rule="nonzero"/><path fill="#FFF" d="M674.795 655.553l3.573-3.46 2.514 2.438-3.573 3.46z"/><path d="M688.8 64a2.57 2.57 0 0 1-.508-2.588l-4.662.825c.635.713.828 1.7.507 2.588L688.8 64zm5.783 9.614l-1.964-9.377a2.717 2.717 0 0 1-2.661.5l1.964 9.368a2.783 2.783 0 0 1 2.661-.491zm8.174-.237A2.603 2.603 0 0 1 701.59 71l-6.337 2.921c.426.278.762.667.969 1.123.176.395.248.826.208 1.254l6.327-2.92zm553.236 292.255c0 3.9-3.263 7.061-7.287 7.061-4.025 0-7.287-3.162-7.287-7.061 0-3.9 3.262-7.062 7.287-7.062 4.022.005 7.282 3.164 7.287 7.062zm-11.868 0c0 2.446 2.047 4.43 4.572 4.43 2.524 0 4.571-1.984 4.571-4.43 0-2.447-2.047-4.43-4.571-4.43-2.523.005-4.567 1.985-4.572 4.43zm-23.761 139.631c0 3.9-3.263 7.062-7.287 7.062-4.025 0-7.287-3.162-7.287-7.062 0-3.9 3.262-7.061 7.287-7.061 4.022.005 7.282 3.163 7.287 7.061zm-11.867 0c0 1.792 1.113 3.407 2.821 4.093 1.709.685 3.675.306 4.982-.96 1.308-1.267 1.699-3.173.991-4.828-.707-1.655-2.374-2.735-4.223-2.735-2.523.005-4.566 1.986-4.571 4.43zM1220.364 226c0 3.9-3.263 7.061-7.287 7.061-4.025 0-7.287-3.161-7.287-7.061s3.262-7.061 7.287-7.061c4.022.004 7.282 3.163 7.287 7.061zm-11.867 0c0 2.447 2.046 4.43 4.57 4.43 2.525 0 4.572-1.983 4.572-4.43 0-2.447-2.047-4.43-4.571-4.43-2.523.005-4.566 1.985-4.571 4.43z" fill="#000" fill-rule="nonzero"/><path d="M863.748 53.588v11.114m5.73-5.553H858.01m-357.095-5.561v11.114m5.73-5.553h-11.46m368.564 582.158v11.114m5.73-5.553H858.01m-357.095-5.561v11.114m5.73-5.553h-11.46" stroke="#FFF" stroke-width="3" stroke-linecap="round"/></g><g opacity=".166" stroke="#000" stroke-linecap="round" stroke-linejoin="round" stroke-width="2"><path d="M590 257.5h-6l-4.5 13.5-9-27-4.5 13.5h-6M1093 570.8h-4.8l-3.6 10.8-7.2-21.6-3.6 10.8h-4.8M529.291 335.612a5.5 5.5 0 0 0-7.78 0l-1.06 1.06-1.06-1.06a5.501 5.501 0 1 0-7.78 7.78l1.06 1.06 7.78 7.78 7.78-7.78 1.06-1.06a5.5 5.5 0 0 0 0-7.78zM274.291 529.612a5.5 5.5 0 0 0-7.78 0l-1.06 1.06-1.06-1.06a5.501 5.501 0 1 0-7.78 7.78l1.06 1.06 7.78 7.78 7.78-7.78 1.06-1.06a5.5 5.5 0 0 0 0-7.78z"/><g transform="translate(675 385)"><circle cx="10" cy="10" r="10"/><path d="M12.31 6l5.74 9.94M7.69 6h11.48M5.38 10L11.12.06M7.69 14L1.95 4.06M12.31 14H.83M14.62 10l-5.74 9.94"/></g><g transform="translate(835 499)"><path d="M22 16a2 2 0 0 1-2 2H2a2 2 0 0 1-2-2V5a2 2 0 0 1 2-2h4l2-3h6l2 3h4a2 2 0 0 1 2 2v11z"/><circle cx="11" cy="10" r="4"/></g><g transform="translate(1007 136)"><circle cx="16" cy="16" r="16"/><circle cx="16" cy="16" r="6.4"/><path d="M30.672 9.6H16M3.12 6.496L10.464 19.2M14.208 31.904L21.536 19.2"/></g><path d="M169.5 84l7.5-7.5-7.5-7.5M159.5 69l-7.5 7.5 7.5 7.5M505 465h1a4 4 0 1 1 0 8h-1M489 465h16v9a4 4 0 0 1-4 4h-8a4 4 0 0 1-4-4v-9zM493 458v3M497 458v3M501 458v3M782.24 324.24a6.003 6.003 0 1 0-8.49-8.49L767 322.5v8.5h8.5l6.74-6.76zM778 320l-14 14M779.5 327H771"/><g><path d="M203.057 340.057a8.576 8.576 0 0 0-12.128-12.128l-9.643 9.642v12.143h12.143l9.628-9.657zM197 334l-20 20M199.143 344H187"/></g><g transform="translate(319 211)"><rect width="24" height="24" rx="2"/><circle cx="7.333" cy="7.333" r="2"/><path d="M24 16l-6.667-6.667L2.667 24"/></g><g transform="translate(1130 422)"><rect width="20" height="20" rx="2"/><circle cx="6.111" cy="6.111" r="1.667"/><path d="M20 13.333l-5.556-5.555L2.222 20"/></g><g><path d="M624.5 602h20c1.375 0 2.5 1.125 2.5 2.5v15c0 1.375-1.125 2.5-2.5 2.5h-20a2.507 2.507 0 0 1-2.5-2.5v-15c0-1.375 1.125-2.5 2.5-2.5z"/><path d="M647 604.5l-12.5 8.75-12.5-8.75"/></g><g transform="translate(939 367)"><path d="M6 15V2l12-2v13"/><circle cx="3" cy="15" r="3"/><circle cx="15" cy="13" r="3"/></g><g transform="translate(451 107)"><path d="M0 11.375c8.077 0 14.625 6.548 14.625 14.625M0 0c14.36 0 26 11.64 26 26"/><circle cx="1.625" cy="24.375" r="1.625"/></g></g></g></svg>